<mxfile host="app.diagrams.net" modified="2023-05-02T23:56:20.402Z" agent="Mozilla/5.0 (Windows NT 10.0; Win64; x64; rv:109.0) Gecko/20100101 Firefox/112.0" etag="AXvQPGjvlARzt6TfqYHl" version="21.2.3" type="device">
  <diagram name="Page-1" id="2YBvvXClWsGukQMizWep">
    <mxGraphModel dx="819" dy="437" grid="1" gridSize="10" guides="1" tooltips="1" connect="1" arrows="1" fold="1" page="1" pageScale="1" pageWidth="850" pageHeight="1100" math="0" shadow="0">
      <root>
        <mxCell id="0" />
        <mxCell id="1" parent="0" />
        <mxCell id="aM9ryv3xv72pqoxQDRHE-1" value=":Deployment Orchestrator" style="shape=umlLifeline;perimeter=lifelinePerimeter;whiteSpace=wrap;html=1;container=0;dropTarget=0;collapsible=0;recursiveResize=0;outlineConnect=0;portConstraint=eastwest;newEdgeStyle={&quot;edgeStyle&quot;:&quot;elbowEdgeStyle&quot;,&quot;elbow&quot;:&quot;vertical&quot;,&quot;curved&quot;:0,&quot;rounded&quot;:0};" parent="1" vertex="1">
          <mxGeometry x="40" y="20" width="100" height="380" as="geometry" />
        </mxCell>
        <mxCell id="aM9ryv3xv72pqoxQDRHE-2" value="" style="html=1;points=[];perimeter=orthogonalPerimeter;outlineConnect=0;targetShapes=umlLifeline;portConstraint=eastwest;newEdgeStyle={&quot;edgeStyle&quot;:&quot;elbowEdgeStyle&quot;,&quot;elbow&quot;:&quot;vertical&quot;,&quot;curved&quot;:0,&quot;rounded&quot;:0};" parent="aM9ryv3xv72pqoxQDRHE-1" vertex="1">
          <mxGeometry x="45" y="70" width="10" height="250" as="geometry" />
        </mxCell>
        <mxCell id="aM9ryv3xv72pqoxQDRHE-3" value="API" style="html=1;verticalAlign=bottom;startArrow=oval;endArrow=block;startSize=8;edgeStyle=elbowEdgeStyle;elbow=vertical;curved=0;rounded=0;" parent="aM9ryv3xv72pqoxQDRHE-1" target="aM9ryv3xv72pqoxQDRHE-2" edge="1">
          <mxGeometry relative="1" as="geometry">
            <mxPoint x="-15" y="70" as="sourcePoint" />
          </mxGeometry>
        </mxCell>
        <mxCell id="aM9ryv3xv72pqoxQDRHE-5" value="Dynamodb" style="shape=umlLifeline;perimeter=lifelinePerimeter;whiteSpace=wrap;html=1;container=0;dropTarget=0;collapsible=0;recursiveResize=0;outlineConnect=0;portConstraint=eastwest;newEdgeStyle={&quot;edgeStyle&quot;:&quot;elbowEdgeStyle&quot;,&quot;elbow&quot;:&quot;vertical&quot;,&quot;curved&quot;:0,&quot;rounded&quot;:0};" parent="1" vertex="1">
          <mxGeometry x="220" y="20" width="100" height="380" as="geometry" />
        </mxCell>
        <mxCell id="aM9ryv3xv72pqoxQDRHE-6" value="" style="html=1;points=[];perimeter=orthogonalPerimeter;outlineConnect=0;targetShapes=umlLifeline;portConstraint=eastwest;newEdgeStyle={&quot;edgeStyle&quot;:&quot;elbowEdgeStyle&quot;,&quot;elbow&quot;:&quot;vertical&quot;,&quot;curved&quot;:0,&quot;rounded&quot;:0};" parent="aM9ryv3xv72pqoxQDRHE-5" vertex="1">
          <mxGeometry x="45" y="80" width="10" height="240" as="geometry" />
        </mxCell>
        <mxCell id="aM9ryv3xv72pqoxQDRHE-7" value="&lt;div style=&quot;font-size: 9px;&quot; align=&quot;left&quot;&gt;&lt;font style=&quot;font-size: 9px;&quot;&gt;&lt;u&gt;getVariablesAndPath&lt;/u&gt;&lt;/font&gt;&lt;/div&gt;&lt;div style=&quot;font-size: 9px;&quot; align=&quot;left&quot;&gt;&lt;font style=&quot;font-size: 9px;&quot;&gt;- client_template_id&lt;font style=&quot;font-size: 9px;&quot;&gt;&lt;br&gt;&lt;/font&gt;&lt;/font&gt;&lt;/div&gt;" style="html=1;verticalAlign=bottom;endArrow=block;edgeStyle=elbowEdgeStyle;elbow=vertical;curved=0;rounded=0;align=left;" parent="1" source="aM9ryv3xv72pqoxQDRHE-2" target="aM9ryv3xv72pqoxQDRHE-6" edge="1">
          <mxGeometry x="-0.4706" relative="1" as="geometry">
            <mxPoint x="195" y="130" as="sourcePoint" />
            <Array as="points">
              <mxPoint x="180" y="120" />
            </Array>
            <mxPoint as="offset" />
          </mxGeometry>
        </mxCell>
        <mxCell id="EUnt3tn_M_OPQTvmQm6U-1" style="edgeStyle=elbowEdgeStyle;rounded=0;orthogonalLoop=1;jettySize=auto;html=1;elbow=vertical;curved=0;" edge="1" parent="1">
          <mxGeometry relative="1" as="geometry">
            <mxPoint x="95" y="234.71" as="sourcePoint" />
            <mxPoint x="269.5" y="234.71" as="targetPoint" />
            <Array as="points">
              <mxPoint x="160" y="234.71" />
              <mxPoint x="180" y="204.71" />
              <mxPoint x="170" y="224.71" />
              <mxPoint x="190" y="154.71" />
              <mxPoint x="190" y="174.71" />
            </Array>
          </mxGeometry>
        </mxCell>
        <mxCell id="EUnt3tn_M_OPQTvmQm6U-2" value="&lt;div style=&quot;font-size: 9px;&quot; align=&quot;left&quot;&gt;&lt;font style=&quot;font-size: 9px;&quot;&gt;&lt;u&gt;Pending&amp;nbsp; Deployment&lt;/u&gt;&lt;/font&gt;&lt;/div&gt;&lt;div style=&quot;font-size: 9px;&quot; align=&quot;left&quot;&gt;&lt;font style=&quot;font-size: 9px;&quot;&gt;- client_template_id&lt;/font&gt;&lt;/div&gt;&lt;div style=&quot;font-size: 9px;&quot; align=&quot;left&quot;&gt;&lt;font style=&quot;font-size: 9px;&quot;&gt;- variable&lt;/font&gt;&lt;/div&gt;&lt;div style=&quot;font-size: 9px;&quot; align=&quot;left&quot;&gt;&lt;font style=&quot;font-size: 9px;&quot;&gt;- status&lt;u&gt;&lt;br&gt;&lt;/u&gt;&lt;/font&gt;&lt;/div&gt;" style="edgeLabel;html=1;align=left;verticalAlign=middle;resizable=0;points=[];" vertex="1" connectable="0" parent="EUnt3tn_M_OPQTvmQm6U-1">
          <mxGeometry x="-0.0143" y="1" relative="1" as="geometry">
            <mxPoint x="-51" y="-24" as="offset" />
          </mxGeometry>
        </mxCell>
        <mxCell id="EUnt3tn_M_OPQTvmQm6U-4" value="&lt;div&gt;Deployment Activator&lt;br&gt;&lt;/div&gt;" style="shape=umlLifeline;perimeter=lifelinePerimeter;whiteSpace=wrap;html=1;container=0;dropTarget=0;collapsible=0;recursiveResize=0;outlineConnect=0;portConstraint=eastwest;newEdgeStyle={&quot;edgeStyle&quot;:&quot;elbowEdgeStyle&quot;,&quot;elbow&quot;:&quot;vertical&quot;,&quot;curved&quot;:0,&quot;rounded&quot;:0};" vertex="1" parent="1">
          <mxGeometry x="400" y="20" width="100" height="380" as="geometry" />
        </mxCell>
        <mxCell id="EUnt3tn_M_OPQTvmQm6U-5" value="" style="html=1;points=[];perimeter=orthogonalPerimeter;outlineConnect=0;targetShapes=umlLifeline;portConstraint=eastwest;newEdgeStyle={&quot;edgeStyle&quot;:&quot;elbowEdgeStyle&quot;,&quot;elbow&quot;:&quot;vertical&quot;,&quot;curved&quot;:0,&quot;rounded&quot;:0};" vertex="1" parent="EUnt3tn_M_OPQTvmQm6U-4">
          <mxGeometry x="45" y="70" width="10" height="250" as="geometry" />
        </mxCell>
        <mxCell id="EUnt3tn_M_OPQTvmQm6U-7" value="&lt;div&gt;Gitlab&lt;/div&gt;" style="shape=umlLifeline;perimeter=lifelinePerimeter;whiteSpace=wrap;html=1;container=0;dropTarget=0;collapsible=0;recursiveResize=0;outlineConnect=0;portConstraint=eastwest;newEdgeStyle={&quot;edgeStyle&quot;:&quot;elbowEdgeStyle&quot;,&quot;elbow&quot;:&quot;vertical&quot;,&quot;curved&quot;:0,&quot;rounded&quot;:0};" vertex="1" parent="1">
          <mxGeometry x="580" y="20" width="100" height="380" as="geometry" />
        </mxCell>
        <mxCell id="EUnt3tn_M_OPQTvmQm6U-8" value="" style="html=1;points=[];perimeter=orthogonalPerimeter;outlineConnect=0;targetShapes=umlLifeline;portConstraint=eastwest;newEdgeStyle={&quot;edgeStyle&quot;:&quot;elbowEdgeStyle&quot;,&quot;elbow&quot;:&quot;vertical&quot;,&quot;curved&quot;:0,&quot;rounded&quot;:0};" vertex="1" parent="EUnt3tn_M_OPQTvmQm6U-7">
          <mxGeometry x="45" y="80" width="10" height="240" as="geometry" />
        </mxCell>
        <mxCell id="EUnt3tn_M_OPQTvmQm6U-9" value="Deploy" style="html=1;verticalAlign=bottom;endArrow=block;edgeStyle=elbowEdgeStyle;elbow=vertical;curved=0;rounded=0;" edge="1" parent="1" source="EUnt3tn_M_OPQTvmQm6U-5" target="EUnt3tn_M_OPQTvmQm6U-8">
          <mxGeometry x="0.0017" relative="1" as="geometry">
            <mxPoint x="555" y="130" as="sourcePoint" />
            <Array as="points">
              <mxPoint x="540" y="140" />
            </Array>
            <mxPoint as="offset" />
          </mxGeometry>
        </mxCell>
        <mxCell id="EUnt3tn_M_OPQTvmQm6U-13" value="&lt;div&gt;ClientId&lt;/div&gt;&lt;div&gt;TemplateId&lt;br&gt;&lt;/div&gt;" style="text;html=1;align=center;verticalAlign=middle;resizable=0;points=[];autosize=1;strokeColor=none;fillColor=none;" vertex="1" parent="1">
          <mxGeometry x="10" y="90" width="80" height="40" as="geometry" />
        </mxCell>
        <mxCell id="EUnt3tn_M_OPQTvmQm6U-14" value="&lt;div style=&quot;font-size: 9px;&quot; align=&quot;left&quot;&gt;&lt;font style=&quot;font-size: 9px;&quot;&gt;- ClientId&lt;/font&gt;&lt;/div&gt;&lt;div style=&quot;font-size: 9px;&quot; align=&quot;left&quot;&gt;&lt;font style=&quot;font-size: 9px;&quot;&gt;- TemplatePath&lt;/font&gt;&lt;/div&gt;&lt;div style=&quot;font-size: 9px;&quot; align=&quot;left&quot;&gt;&lt;font style=&quot;font-size: 9px;&quot;&gt;- Variables&lt;font style=&quot;font-size: 9px;&quot;&gt;&lt;br&gt;&lt;/font&gt;&lt;/font&gt;&lt;/div&gt;" style="text;html=1;align=left;verticalAlign=middle;resizable=0;points=[];autosize=1;strokeColor=none;fillColor=none;" vertex="1" parent="1">
          <mxGeometry x="320" y="280" width="90" height="50" as="geometry" />
        </mxCell>
        <mxCell id="EUnt3tn_M_OPQTvmQm6U-16" style="edgeStyle=elbowEdgeStyle;rounded=0;orthogonalLoop=1;jettySize=auto;html=1;elbow=vertical;curved=0;" edge="1" parent="1" source="aM9ryv3xv72pqoxQDRHE-2" target="EUnt3tn_M_OPQTvmQm6U-4">
          <mxGeometry relative="1" as="geometry">
            <Array as="points">
              <mxPoint x="320" y="280" />
              <mxPoint x="250" y="220" />
            </Array>
          </mxGeometry>
        </mxCell>
        <mxCell id="EUnt3tn_M_OPQTvmQm6U-17" value="SQS" style="edgeLabel;html=1;align=center;verticalAlign=middle;resizable=0;points=[];" vertex="1" connectable="0" parent="EUnt3tn_M_OPQTvmQm6U-16">
          <mxGeometry x="0.3634" y="-2" relative="1" as="geometry">
            <mxPoint x="13" y="-2" as="offset" />
          </mxGeometry>
        </mxCell>
        <mxCell id="EUnt3tn_M_OPQTvmQm6U-19" value="&lt;div style=&quot;font-size: 9px;&quot;&gt;&lt;font style=&quot;font-size: 9px;&quot;&gt;-ClientId&lt;/font&gt;&lt;/div&gt;&lt;div style=&quot;font-size: 9px;&quot;&gt;&lt;font style=&quot;font-size: 9px;&quot;&gt;- TemplateId&lt;br&gt;&lt;/font&gt;&lt;/div&gt;&lt;div style=&quot;font-size: 9px;&quot;&gt;&lt;font style=&quot;font-size: 9px;&quot;&gt;-TemplatePath&lt;/font&gt;&lt;/div&gt;&lt;div style=&quot;font-size: 9px;&quot;&gt;&lt;font style=&quot;font-size: 9px;&quot;&gt;-Variables&lt;font style=&quot;font-size: 9px;&quot;&gt;&lt;br&gt;&lt;/font&gt;&lt;/font&gt;&lt;/div&gt;" style="text;html=1;align=left;verticalAlign=middle;resizable=0;points=[];autosize=1;strokeColor=none;fillColor=none;" vertex="1" parent="1">
          <mxGeometry x="510" y="140" width="80" height="60" as="geometry" />
        </mxCell>
        <mxCell id="EUnt3tn_M_OPQTvmQm6U-21" style="edgeStyle=elbowEdgeStyle;rounded=0;orthogonalLoop=1;jettySize=auto;html=1;elbow=vertical;curved=0;" edge="1" parent="1" source="aM9ryv3xv72pqoxQDRHE-6" target="aM9ryv3xv72pqoxQDRHE-1">
          <mxGeometry relative="1" as="geometry">
            <Array as="points">
              <mxPoint x="160" y="170" />
              <mxPoint x="130" y="150" />
            </Array>
          </mxGeometry>
        </mxCell>
        <mxCell id="EUnt3tn_M_OPQTvmQm6U-22" value="&lt;div style=&quot;font-size: 9px;&quot; align=&quot;left&quot;&gt;&lt;font style=&quot;font-size: 9px;&quot;&gt;- deployment_path&lt;/font&gt;&lt;/div&gt;&lt;div style=&quot;font-size: 9px;&quot; align=&quot;left&quot;&gt;&lt;font style=&quot;font-size: 9px;&quot;&gt;- variables&lt;font style=&quot;font-size: 9px;&quot;&gt;&lt;br&gt;&lt;/font&gt;&lt;/font&gt;&lt;/div&gt;" style="edgeLabel;html=1;align=left;verticalAlign=middle;resizable=0;points=[];" vertex="1" connectable="0" parent="EUnt3tn_M_OPQTvmQm6U-21">
          <mxGeometry x="0.1293" relative="1" as="geometry">
            <mxPoint x="-36" y="-20" as="offset" />
          </mxGeometry>
        </mxCell>
        <mxCell id="EUnt3tn_M_OPQTvmQm6U-23" style="edgeStyle=elbowEdgeStyle;rounded=0;orthogonalLoop=1;jettySize=auto;html=1;elbow=vertical;curved=0;" edge="1" parent="1" source="aM9ryv3xv72pqoxQDRHE-6">
          <mxGeometry relative="1" as="geometry">
            <mxPoint x="90" y="250" as="targetPoint" />
            <Array as="points">
              <mxPoint x="110" y="250" />
            </Array>
          </mxGeometry>
        </mxCell>
        <mxCell id="EUnt3tn_M_OPQTvmQm6U-25" style="edgeStyle=elbowEdgeStyle;rounded=0;orthogonalLoop=1;jettySize=auto;html=1;elbow=vertical;curved=0;" edge="1" parent="1" source="EUnt3tn_M_OPQTvmQm6U-8" target="EUnt3tn_M_OPQTvmQm6U-4">
          <mxGeometry relative="1" as="geometry">
            <Array as="points">
              <mxPoint x="520" y="200" />
              <mxPoint x="550" y="220" />
              <mxPoint x="480" y="220" />
            </Array>
          </mxGeometry>
        </mxCell>
      </root>
    </mxGraphModel>
  </diagram>
</mxfile>
